<svg xmlns="http://www.w3.org/2000/svg" width="99.3" height="28.347" viewBox="0 0 99.3 28.347"><path d="M91.42,28.347V13.728s-.08-.661-.391,0l-5,14.559v.06H79.4v-.06l-5-14.559c-.31-.661-.391,0-.391,0v14.62H66.13V.007H73.66a2.688,2.688,0,0,1,2.58,1.52l6,15.521s.19.48.43.45.429-.45.429-.45l6-15.521A2.791,2.791,0,0,1,91.74.007H99.3v28.34Zm-45.77,0v-9L35.68.007h9L49.67,10.938l3.9,8.41-2.5-11.49L54.65.007h8.89l-9.97,19.34v9Zm-20.4,0V13.728s-.08-.661-.391,0l-5,14.559v.06H13.27v-.06l-5-14.559c-.311-.661-.39,0-.39,0v14.62H0V.007H7.47a2.791,2.791,0,0,1,2.64,1.52l6,15.521s.19.48.43.45.43-.45.43-.45l6-15.521A2.791,2.791,0,0,1,25.66.007h7.47v28.34Z" transform="translate(0 0)" fill="#fff"/></svg>